# xmcd
#
# Track frame offsets:
# 150
# 17336
# 42507
# 62821
#
# Disc length: 1147 seconds
#
#
# Revision: 0
# Processed by: cddbd v1.5PL3 Copyright (c) Steve Scherf et al.
# Submitted via: FreeRIP 2.70 
#
DISCID=2b047904
DTITLE=Bluesmachine - Bluesmachine
DYEAR=2003
DGENRE=blues
TTITLE0=Left My Blues Behind
TTITLE1=Got To know Love
TTITLE2=Bourbon Street
TTITLE3=Someday, Somehow
EXTD=Bluesfestradio.com
EXTT0=
EXTT1=
EXTT2=
EXTT3=
PLAYORDER=
